<svg id="visual" viewBox="0 0 960 540" width="960" height="540" xmlns="http://www.w3.org/2000/svg" xmlns:xlink="http://www.w3.org/1999/xlink" version="1.1"><path d="M0 77L13.3 83.2C26.7 89.3 53.3 101.7 80 102.5C106.7 103.3 133.3 92.7 160 91C186.7 89.3 213.3 96.7 240 92.2C266.7 87.7 293.3 71.3 320 60.5C346.7 49.7 373.3 44.3 400 50.7C426.7 57 453.3 75 480 78.5C506.7 82 533.3 71 560 59.3C586.7 47.7 613.3 35.3 640 36.3C666.7 37.3 693.3 51.7 720 53.3C746.7 55 773.3 44 800 49.3C826.7 54.7 853.3 76.3 880 89.8C906.7 103.3 933.3 108.7 946.7 111.3L960 114L960 0L946.7 0C933.3 0 906.7 0 880 0C853.3 0 826.7 0 800 0C773.3 0 746.7 0 720 0C693.3 0 666.7 0 640 0C613.3 0 586.7 0 560 0C533.3 0 506.7 0 480 0C453.3 0 426.7 0 400 0C373.3 0 346.7 0 320 0C293.3 0 266.7 0 240 0C213.3 0 186.7 0 160 0C133.3 0 106.7 0 80 0C53.3 0 26.7 0 13.3 0L0 0Z" fill="#1d1c28"></path><path d="M0 309L13.3 284.7C26.7 260.3 53.3 211.7 80 191.8C106.7 172 133.3 181 160 190C186.7 199 213.3 208 240 208.8C266.7 209.7 293.3 202.3 320 187C346.7 171.7 373.3 148.3 400 156.5C426.7 164.7 453.3 204.3 480 214.3C506.7 224.3 533.3 204.7 560 185.8C586.7 167 613.3 149 640 162.5C666.7 176 693.3 221 720 229C746.7 237 773.3 208 800 215.2C826.7 222.3 853.3 265.7 880 290C906.7 314.3 933.3 319.7 946.7 322.3L960 325L960 112L946.7 109.3C933.3 106.7 906.7 101.3 880 87.8C853.3 74.3 826.7 52.7 800 47.3C773.3 42 746.7 53 720 51.3C693.3 49.7 666.7 35.3 640 34.3C613.3 33.3 586.7 45.7 560 57.3C533.3 69 506.7 80 480 76.5C453.3 73 426.7 55 400 48.7C373.3 42.3 346.7 47.7 320 58.5C293.3 69.3 266.7 85.7 240 90.2C213.3 94.7 186.7 87.3 160 89C133.3 90.7 106.7 101.3 80 100.5C53.3 99.7 26.7 87.3 13.3 81.2L0 75Z" fill="#21202e"></path><path d="M0 460L13.3 451C26.7 442 53.3 424 80 398.8C106.7 373.7 133.3 341.3 160 348.5C186.7 355.7 213.3 402.3 240 405.8C266.7 409.3 293.3 369.7 320 365.2C346.7 360.7 373.3 391.3 400 387.8C426.7 384.3 453.3 346.7 480 332.3C506.7 318 533.3 327 560 324.3C586.7 321.7 613.3 307.3 640 311.8C666.7 316.3 693.3 339.7 720 341.3C746.7 343 773.3 323 800 335.5C826.7 348 853.3 393 880 405.7C906.7 418.3 933.3 398.7 946.7 388.8L960 379L960 323L946.7 320.3C933.3 317.7 906.7 312.3 880 288C853.3 263.7 826.7 220.3 800 213.2C773.3 206 746.7 235 720 227C693.3 219 666.7 174 640 160.5C613.3 147 586.7 165 560 183.8C533.3 202.7 506.7 222.3 480 212.3C453.3 202.3 426.7 162.7 400 154.5C373.3 146.3 346.7 169.7 320 185C293.3 200.3 266.7 207.7 240 206.8C213.3 206 186.7 197 160 188C133.3 179 106.7 170 80 189.8C53.3 209.7 26.7 258.3 13.3 282.7L0 307Z" fill="#262435"></path><path d="M0 471L13.3 476.3C26.7 481.7 53.3 492.3 80 477.8C106.7 463.3 133.3 423.7 160 425.5C186.7 427.3 213.3 470.7 240 472.5C266.7 474.3 293.3 434.7 320 423.8C346.7 413 373.3 431 400 435.5C426.7 440 453.3 431 480 417.5C506.7 404 533.3 386 560 378C586.7 370 613.3 372 640 374.7C666.7 377.3 693.3 380.7 720 377C746.7 373.3 773.3 362.7 800 376.2C826.7 389.7 853.3 427.3 880 449.8C906.7 472.3 933.3 479.7 946.7 483.3L960 487L960 377L946.7 386.8C933.3 396.7 906.7 416.3 880 403.7C853.3 391 826.7 346 800 333.5C773.3 321 746.7 341 720 339.3C693.3 337.7 666.7 314.3 640 309.8C613.3 305.3 586.7 319.7 560 322.3C533.3 325 506.7 316 480 330.3C453.3 344.7 426.7 382.3 400 385.8C373.3 389.3 346.7 358.7 320 363.2C293.3 367.7 266.7 407.3 240 403.8C213.3 400.3 186.7 353.7 160 346.5C133.3 339.3 106.7 371.7 80 396.8C53.3 422 26.7 440 13.3 449L0 458Z" fill="#363448"></path><path d="M0 541L13.3 541C26.7 541 53.3 541 80 541C106.7 541 133.3 541 160 541C186.7 541 213.3 541 240 541C266.7 541 293.3 541 320 541C346.7 541 373.3 541 400 541C426.7 541 453.3 541 480 541C506.7 541 533.3 541 560 541C586.7 541 613.3 541 640 541C666.7 541 693.3 541 720 541C746.7 541 773.3 541 800 541C826.7 541 853.3 541 880 541C906.7 541 933.3 541 946.7 541L960 541L960 485L946.7 481.3C933.3 477.7 906.7 470.3 880 447.8C853.3 425.3 826.7 387.7 800 374.2C773.3 360.7 746.7 371.3 720 375C693.3 378.7 666.7 375.3 640 372.7C613.3 370 586.7 368 560 376C533.3 384 506.7 402 480 415.5C453.3 429 426.7 438 400 433.5C373.3 429 346.7 411 320 421.8C293.3 432.7 266.7 472.3 240 470.5C213.3 468.7 186.7 425.3 160 423.5C133.3 421.7 106.7 461.3 80 475.8C53.3 490.3 26.7 479.7 13.3 474.3L0 469Z" fill="#47445c"></path></svg>